<svg xmlns="http://www.w3.org/2000/svg" xmlns:xlink="http://www.w3.org/1999/xlink" width="287.199" height="296.63" viewBox="0 0 287.199 296.63">
  <defs>
    <linearGradient id="linear-gradient" x1="0.5" x2="0.5" y2="1" gradientUnits="objectBoundingBox">
      <stop offset="0" stop-color="#d7f646"/>
      <stop offset="1" stop-color="#85a100"/>
    </linearGradient>
  </defs>
  <g id="robot" transform="translate(-43.37 -43.29)">
    <g id="Plant" transform="translate(44.312 204.126)">
      <g id="Group_7" data-name="Group 7" transform="translate(0)">
        <g id="Group_2" data-name="Group 2" transform="translate(21.238 13.052)">
          <path id="Path_1" data-name="Path 1" d="M84.705,303.817c-9.083,8.889-10.605,22.649-8.694,34.692.049.271.473.2.473-.056,0-2.745-.083-5.462-.076-8.173.049-.125.09-.243.139-.361a18.22,18.22,0,0,0,5.9-6.338c1.515-2.981,2.113-6.345,3.273-9.465.1-.3-.208-.208-.417-.056-5.525,4.072-7.283,8.458-8.868,14.316a49.021,49.021,0,0,1,.959-9.125c1.2-5.56,3.558-11.071,7.547-15.2C85.095,303.9,84.858,303.657,84.705,303.817Z" transform="translate(-75.286 -296.633)" fill="#263238"/>
          <g id="Group_1" data-name="Group 1" transform="translate(7.903)">
            <path id="Path_2" data-name="Path 2" d="M89.922,301.722c1.564.056,2.544,2.551,3.76,3.28a1.171,1.171,0,0,0,1.724-.271c1.209-1.682-.452-3.76-2.008-4.927,1.112.459,2.036,1.265,3.239,1.487a1.127,1.127,0,0,0,1.459-.876c.528-2.293-2.349-3.315-4.33-3.364.959-.667,3.7-2.474,2.245-3.364-1.48-.9-4.7,1.7-5.747,2.551-1.543,1.251-3.384,3.127-3.454,5.087C86.718,303.612,88.72,302.2,89.922,301.722Z" transform="translate(-86.703 -293.503)" fill="#ffc727"/>
            <path id="Path_3" data-name="Path 3" d="M89.922,301.722c1.564.056,2.544,2.551,3.76,3.28a1.171,1.171,0,0,0,1.724-.271c1.209-1.682-.452-3.76-2.008-4.927,1.112.459,2.036,1.265,3.239,1.487a1.127,1.127,0,0,0,1.459-.876c.528-2.293-2.349-3.315-4.33-3.364.959-.667,3.7-2.474,2.245-3.364-1.48-.9-4.7,1.7-5.747,2.551-1.543,1.251-3.384,3.127-3.454,5.087C86.718,303.612,88.72,302.2,89.922,301.722Z" transform="translate(-86.703 -293.503)" opacity="0.1"/>
            <path id="Path_4" data-name="Path 4" d="M89.425,303.037c1.995-.91,5.838.4,6.164-.354.66-1.536-2.4-2.592-4.059-2.8,1.522-.41,4.448-1.07,4.357-2.544-.111-1.793-4.482-.25-6.692,1.445-2.787,2.134-2.766,4.2-2.307,4.615C87.514,303.961,89.1,303.183,89.425,303.037Z" transform="translate(-86.658 -294.428)" fill="#ffc727"/>
          </g>
        </g>
        <g id="Group_4" data-name="Group 4" transform="translate(0 12.439)">
          <path id="Path_5" data-name="Path 5" d="M58.787,302.55c9.417,8.541,11.46,22.225,10.007,34.338-.042.278-.466.215-.473-.042-.1-2.738-.125-5.462-.236-8.166-.056-.125-.1-.236-.153-.361a18.294,18.294,0,0,1-6.136-6.109c-1.626-2.926-2.356-6.262-3.628-9.333-.118-.292.2-.215.417-.076,5.678,3.864,7.6,8.173,9.41,13.969a48.439,48.439,0,0,0-1.307-9.083c-1.4-5.511-3.975-10.925-8.124-14.9C58.405,302.648,58.628,302.4,58.787,302.55Z" transform="translate(-48.819 -295.636)" fill="#263238"/>
          <g id="Group_3" data-name="Group 3">
            <path id="Path_6" data-name="Path 6" d="M53.034,300.64c-1.557.111-2.446,2.648-3.635,3.419a1.169,1.169,0,0,1-1.73-.208c-1.272-1.64.306-3.774,1.814-5-1.1.5-1.988,1.341-3.176,1.612a1.13,1.13,0,0,1-1.494-.82c-.619-2.272,2.224-3.405,4.2-3.53-.98-.625-3.794-2.335-2.37-3.28,1.446-.952,4.76,1.515,5.845,2.328,1.591,1.2,3.5,3,3.649,4.948C56.3,302.405,54.25,301.071,53.034,300.64Z" transform="translate(-44.726 -292.62)" fill="#ffc727"/>
            <path id="Path_7" data-name="Path 7" d="M53.034,300.64c-1.557.111-2.446,2.648-3.635,3.419a1.169,1.169,0,0,1-1.73-.208c-1.272-1.64.306-3.774,1.814-5-1.1.5-1.988,1.341-3.176,1.612a1.13,1.13,0,0,1-1.494-.82c-.619-2.272,2.224-3.405,4.2-3.53-.98-.625-3.794-2.335-2.37-3.28,1.446-.952,4.76,1.515,5.845,2.328,1.591,1.2,3.5,3,3.649,4.948C56.3,302.405,54.25,301.071,53.034,300.64Z" transform="translate(-44.726 -292.62)" opacity="0.1"/>
            <path id="Path_8" data-name="Path 8" d="M54.425,301.922c-2.029-.834-5.817.619-6.171-.125-.723-1.515,2.307-2.683,3.954-2.954-1.536-.354-4.482-.9-4.448-2.377.042-1.8,4.469-.424,6.741,1.188,2.863,2.029,2.926,4.093,2.481,4.524C56.37,302.77,54.758,302.054,54.425,301.922Z" transform="translate(-45.651 -293.534)" fill="#ffc727"/>
          </g>
        </g>
        <g id="Group_6" data-name="Group 6" transform="translate(11.18)">
          <path id="Path_9" data-name="Path 9" d="M69.234,321a92.187,92.187,0,0,0,2.926,13.5.337.337,0,0,0,.66-.132c-.619-4.163-1.744-8.242-2.363-12.405a62.531,62.531,0,0,1-.723-12.739c.4-7.012,2.3-14.469,6.873-19.959.1-.132-.111-.313-.215-.195-9.16,10.682-7.7,23.775-7.693,24.949-1.3-4.42-2.634-9.493-7.54-13.99-.208-.195-.375-.1-.341.229.876,8.2,3.155,12.482,7.909,16.867Q68.925,319.078,69.234,321Z" transform="translate(-60.813 -279.088)" fill="#263238"/>
          <g id="Group_5" data-name="Group 5" transform="translate(12.073)">
            <path id="Path_10" data-name="Path 10" d="M81.983,286.132c1.647-.73,3.92,1.369,5.553,1.508a1.356,1.356,0,0,0,1.654-1.147c.4-2.356-2.356-3.676-4.559-4.1,1.383-.083,2.752.285,4.107-.083a1.307,1.307,0,0,0,1.077-1.647c-.6-2.648-4.107-2.259-6.185-1.314.66-1.174,2.6-4.434.632-4.621s-4.024,4.121-4.684,5.539c-.973,2.078-1.939,4.948-1.029,7.019C79.606,289.7,80.975,287.23,81.983,286.132Z" transform="translate(-78.186 -274.722)" fill="#ffc727"/>
            <path id="Path_11" data-name="Path 11" d="M81.983,286.132c1.647-.73,3.92,1.369,5.553,1.508a1.356,1.356,0,0,0,1.654-1.147c.4-2.356-2.356-3.676-4.559-4.1,1.383-.083,2.752.285,4.107-.083a1.307,1.307,0,0,0,1.077-1.647c-.6-2.648-4.107-2.259-6.185-1.314.66-1.174,2.6-4.434.632-4.621s-4.024,4.121-4.684,5.539c-.973,2.078-1.939,4.948-1.029,7.019C79.606,289.7,80.975,287.23,81.983,286.132Z" transform="translate(-78.186 -274.722)" opacity="0.1"/>
            <path id="Path_12" data-name="Path 12" d="M81.759,287.811c1.612-1.946,6.255-2.523,6.213-3.475-.09-1.932-3.8-1.48-5.622-.862,1.376-1.2,4.072-3.35,3.239-4.83-1.015-1.807-4.774,1.995-6.22,4.865-1.814,3.621-.758,5.747-.076,5.949C80.244,289.736,81.494,288.13,81.759,287.811Z" transform="translate(-78.239 -275.776)" fill="#ffc727"/>
          </g>
        </g>
        <path id="Path_13" data-name="Path 13" d="M62.478,338.565l-4.038,30.87H83.021c-.507-2.738-5.08-30.9-5.08-30.9Z" transform="translate(-48.909 -294.186)" fill="#ffc727"/>
      </g>
    </g>
    <g id="Floor" transform="translate(43.37 279.125)">
      <path id="Path_14" data-name="Path 14" d="M43.37,382.987l35.9-.167,35.9-.063,71.8-.118,71.8.118,35.9.063,35.9.167-35.9.174-35.9.063-71.8.111-71.8-.118-35.9-.056Z" transform="translate(-43.37 -382.64)" fill="none"/>
    </g>
    <g id="Shadow" transform="translate(83.379 310.62)" opacity="0.5">
      <ellipse id="Ellipse_3" data-name="Ellipse 3" cx="103.591" cy="14.65" rx="103.591" ry="14.65" fill="#ebebeb"/>
    </g>
    <g id="_x34_04_Error" transform="translate(79.835 43.29)">
      <g id="Group_10" data-name="Group 10" transform="translate(0)">
        <g id="Group_8" data-name="Group 8" transform="translate(0 32.601)">
          <path id="Path_15" data-name="Path 15" d="M138.74,187.49l-4.316-16.978-34.081,8.659-4.5-17.721,27.236-62.067,13.51-3.433,13.135,51.677,10.9-2.773,4.538,17.847-10.9,2.773,4.316,16.978Zm-23.351-31.134,16.853-4.281-5.574-21.933Z" transform="translate(-95.84 -91.954)" fill="url(#linear-gradient)"/>
          <path id="Path_16" data-name="Path 16" d="M268.724,129.062a45.519,45.519,0,0,1-2.557,15.532,38.575,38.575,0,0,1-7.033,12.273,31.75,31.75,0,0,1-10.55,8.055,30.535,30.535,0,0,1-13.232,2.877,30.9,30.9,0,0,1-13.295-2.877,31.566,31.566,0,0,1-10.612-8.055,37.7,37.7,0,0,1-6.97-12.273,49.6,49.6,0,0,1,0-31.065,37.428,37.428,0,0,1,6.97-12.273,32.3,32.3,0,0,1,10.612-8.117,30.37,30.37,0,0,1,13.295-2.94,29.947,29.947,0,0,1,13.232,2.94,32.741,32.741,0,0,1,10.55,8.117,38.6,38.6,0,0,1,7.033,12.273A45.518,45.518,0,0,1,268.724,129.062Zm-20.585,0q0-8.944-3.579-14.511t-9.208-5.56q-5.879,0-9.4,5.56t-3.516,14.511q0,8.955,3.516,14.448t9.4,5.5q5.629,0,9.208-5.5T248.139,129.062Z" transform="translate(-128.217 -90.2)" fill="url(#linear-gradient)"/>
          <path id="Path_17" data-name="Path 17" d="M336.833,184.748l2.8-17.291-34.713-5.622,2.926-18.048,49.7-46.1,13.76,2.231-8.527,52.636,11.105,1.8-2.947,18.173-11.105-1.8-2.8,17.291Zm-9.021-37.854,17.166,2.78L348.6,127.33Z" transform="translate(-159.618 -92.485)" fill="url(#linear-gradient)"/>
        </g>
        <g id="Group_9" data-name="Group 9" transform="translate(68.704)">
          <path id="Path_18" data-name="Path 18" d="M204.416,63.589a9.083,9.083,0,0,1-3.975-.855,9.687,9.687,0,0,1-3.058-2.273,10.553,10.553,0,0,1-2.683-6.977,10.057,10.057,0,0,1,.744-3.815,10.568,10.568,0,0,1,2.05-3.232,9.689,9.689,0,0,1,3.1-2.231,9.261,9.261,0,0,1,3.906-.827,8.756,8.756,0,0,1,3.947.883,9.879,9.879,0,0,1,3.044,2.314,10.775,10.775,0,0,1,1.967,3.259,10.3,10.3,0,0,1,.7,3.7,10.056,10.056,0,0,1-.73,3.8,10.247,10.247,0,0,1-2.022,3.2,9.728,9.728,0,0,1-3.086,2.217A9.206,9.206,0,0,1,204.416,63.589Zm-5.789-10.1a7.986,7.986,0,0,0,.4,2.5,6.625,6.625,0,0,0,1.14,2.134,5.613,5.613,0,0,0,1.828,1.487,5.626,5.626,0,0,0,4.934-.014,5.72,5.72,0,0,0,1.828-1.529,7.044,7.044,0,0,0,1.126-2.147,8.038,8.038,0,0,0,.382-2.425,7.8,7.8,0,0,0-.41-2.5,6.792,6.792,0,0,0-1.154-2.134,5.4,5.4,0,0,0-1.828-1.473,5.673,5.673,0,0,0-4.927.028,5.549,5.549,0,0,0-1.828,1.515A6.931,6.931,0,0,0,199,51.059,8.218,8.218,0,0,0,198.627,53.485Z" transform="translate(-194.7 -43.317)" fill="#d7f646"/>
          <path id="Path_19" data-name="Path 19" d="M232.841,65.974a8.144,8.144,0,0,1-3.232-.619,7.189,7.189,0,0,1-2.425-1.668,7.292,7.292,0,0,1-1.529-2.425,8.152,8.152,0,0,1,0-5.81,7.4,7.4,0,0,1,1.529-2.425,7.259,7.259,0,0,1,2.425-1.668,8.715,8.715,0,0,1,6.449,0,7.2,7.2,0,0,1,2.411,1.668A7.292,7.292,0,0,1,240,55.452a8.152,8.152,0,0,1,0,5.81,7.484,7.484,0,0,1-1.515,2.425,7.063,7.063,0,0,1-2.412,1.668A8.024,8.024,0,0,1,232.841,65.974Zm-3.85-7.6a5.137,5.137,0,0,0,.292,1.779,4.311,4.311,0,0,0,.813,1.39,3.69,3.69,0,0,0,4.253.91,3.731,3.731,0,0,0,1.223-.91,4.306,4.306,0,0,0,.813-1.4,5.286,5.286,0,0,0,.292-1.8,5.169,5.169,0,0,0-.292-1.765,4.306,4.306,0,0,0-.813-1.4,3.586,3.586,0,0,0-2.738-1.23,3.477,3.477,0,0,0-1.515.334,3.873,3.873,0,0,0-1.223.924,4.306,4.306,0,0,0-.813,1.4A5.209,5.209,0,0,0,228.991,58.371Z" transform="translate(-203.979 -45.563)" fill="#d7f646"/>
          <path id="Path_20" data-name="Path 20" d="M259.742,65.97a5.8,5.8,0,0,1-3.03-.771,5.465,5.465,0,0,1-2.022-2.092v8.562h-3.76V50.98h3.287v2.53a6.024,6.024,0,0,1,2.106-2.036,5.887,5.887,0,0,1,2.974-.744,6.283,6.283,0,0,1,2.752.6,6.821,6.821,0,0,1,2.175,1.626,7.527,7.527,0,0,1,1.432,2.412,8.275,8.275,0,0,1,.521,2.933,9.216,9.216,0,0,1-.48,3,7.646,7.646,0,0,1-1.334,2.439,6.132,6.132,0,0,1-2.036,1.626A5.573,5.573,0,0,1,259.742,65.97Zm-1.258-3.2a3.3,3.3,0,0,0,1.557-.368,3.813,3.813,0,0,0,1.223-.98,4.676,4.676,0,0,0,.785-1.432,5.112,5.112,0,0,0,.278-1.682,4.8,4.8,0,0,0-.306-1.724,4.407,4.407,0,0,0-.855-1.39,3.91,3.91,0,0,0-2.9-1.258,3.665,3.665,0,0,0-1.1.181,3.856,3.856,0,0,0-1.042.521,4.367,4.367,0,0,0-.855.785,3.338,3.338,0,0,0-.577.98v3.454a5.057,5.057,0,0,0,1.543,2.092A3.6,3.6,0,0,0,258.484,62.774Z" transform="translate(-211.852 -45.559)" fill="#d7f646"/>
          <path id="Path_21" data-name="Path 21" d="M281.621,65.961A11.293,11.293,0,0,1,278,65.371a8.839,8.839,0,0,1-3.03-1.682l1.4-2.356A11.826,11.826,0,0,0,279,62.778a7.065,7.065,0,0,0,2.544.493,3.159,3.159,0,0,0,1.765-.424,1.352,1.352,0,0,0,.646-1.209,1.2,1.2,0,0,0-.758-1.154,16.672,16.672,0,0,0-2.467-.841c-.952-.264-1.765-.514-2.439-.758a6.31,6.31,0,0,1-1.626-.827,2.863,2.863,0,0,1-.9-1.063,3.4,3.4,0,0,1-.278-1.446,4.548,4.548,0,0,1,.438-2.022A4.353,4.353,0,0,1,277.152,52a5.54,5.54,0,0,1,1.842-.966,7.544,7.544,0,0,1,2.286-.334,9.753,9.753,0,0,1,3.1.48,7.617,7.617,0,0,1,2.655,1.543l-1.515,2.273a8.87,8.87,0,0,0-2.175-1.237,5.9,5.9,0,0,0-2.092-.4,3,3,0,0,0-1.6.4,1.368,1.368,0,0,0-.646,1.265,1.2,1.2,0,0,0,.153.646,1.367,1.367,0,0,0,.493.452,4.969,4.969,0,0,0,.883.382c.368.125.82.25,1.362.382,1.008.264,1.876.521,2.6.785a7.189,7.189,0,0,1,1.765.9,3.217,3.217,0,0,1,1.015,1.168,3.56,3.56,0,0,1,.32,1.585,4.109,4.109,0,0,1-1.6,3.412A7.147,7.147,0,0,1,281.621,65.961Z" transform="translate(-219.186 -45.55)" fill="#d7f646"/>
          <path id="Path_22" data-name="Path 22" d="M297.67,55.924V43.29h3.76V55.924Zm0,7.5V59.184h3.76v4.239Z" transform="translate(-226.11 -43.29)" fill="#d7f646"/>
        </g>
      </g>
    </g>
    <g id="Robot-2" data-name="Robot" transform="translate(99.28 151.62)">
      <g id="Group_53" data-name="Group 53">
        <g id="Group_11" data-name="Group 11" transform="translate(77.328 79.698)">
          <rect id="Rectangle_50" data-name="Rectangle 50" width="24.678" height="2.022" fill="#37474f"/>
          <rect id="Rectangle_51" data-name="Rectangle 51" width="24.678" height="2.022" transform="translate(0 2.627)" fill="#37474f"/>
          <rect id="Rectangle_52" data-name="Rectangle 52" width="24.678" height="2.022" transform="translate(0 5.261)" fill="#37474f"/>
          <rect id="Rectangle_53" data-name="Rectangle 53" width="24.678" height="2.022" transform="translate(0 7.895)" fill="#37474f"/>
          <rect id="Rectangle_54" data-name="Rectangle 54" width="24.678" height="2.022" transform="translate(0 10.529)" fill="#37474f"/>
        </g>
        <g id="Group_12" data-name="Group 12" transform="translate(65.771 142.759)">
          <rect id="Rectangle_55" data-name="Rectangle 55" width="46.924" height="2.022" fill="#37474f"/>
          <rect id="Rectangle_56" data-name="Rectangle 56" width="46.924" height="2.022" transform="translate(0 2.634)" fill="#37474f"/>
          <rect id="Rectangle_57" data-name="Rectangle 57" width="46.924" height="2.022" transform="translate(0 5.268)" fill="#37474f"/>
          <rect id="Rectangle_58" data-name="Rectangle 58" width="46.924" height="2.022" transform="translate(0 7.902)" fill="#37474f"/>
          <rect id="Rectangle_59" data-name="Rectangle 59" width="46.924" height="2.022" transform="translate(0 10.536)" fill="#37474f"/>
        </g>
        <g id="Group_24" data-name="Group 24" transform="translate(34.908)">
          <g id="Group_13" data-name="Group 13" transform="translate(0 20.974)">
            <path id="Path_23" data-name="Path 23" d="M184.322,271.36c.021-.271-10.271-3.718-10.271-3.718l.6-35.367L188.3,229.35Z" transform="translate(-174.05 -229.35)" fill="#ffc727"/>
            <path id="Path_24" data-name="Path 24" d="M184.322,271.36c.021-.271-10.271-3.718-10.271-3.718l.6-35.367L188.3,229.35Z" transform="translate(-174.05 -229.35)" opacity="0.2"/>
          </g>
          <g id="Group_14" data-name="Group 14" transform="translate(104.55 36.048)">
            <path id="Path_25" data-name="Path 25" d="M324.49,291.855c.07-.264,10.925.042,10.925.042l11.6-33.414-11.807-7.443Z" transform="translate(-324.49 -251.04)" fill="#ffc727"/>
            <path id="Path_26" data-name="Path 26" d="M324.49,291.855c.07-.264,10.925.042,10.925.042l11.6-33.414-11.807-7.443Z" transform="translate(-324.49 -251.04)" opacity="0.2"/>
          </g>
          <path id="Path_27" data-name="Path 27" d="M185.98,275.178s3.815-57.2,7.165-76.008c0,0,69.093,5.226,106.392,19.48,0,0-19.23,66.807-20.223,70.122C279.313,288.771,230.659,279.181,185.98,275.178Z" transform="translate(-177.689 -199.17)" fill="#ffc727"/>
          <g id="Group_15" data-name="Group 15" transform="translate(59.037 7.631)">
            <path id="Path_28" data-name="Path 28" d="M271.41,210.15q-1.689,10.331-3.433,20.647l-3.558,20.626-.195-.292,23.149,5.5,11.564,2.8,11.55,2.856-11.613-2.6-11.6-2.655-23.17-5.414-.236-.056.042-.236,3.69-20.606Q269.458,220.442,271.41,210.15Z" transform="translate(-260.486 -210.15)" opacity="0.1"/>
            <path id="Path_29" data-name="Path 29" d="M269.889,215.209a1.345,1.345,0,0,1-2.231,1.015,1.375,1.375,0,0,1-.459-1.015,1.345,1.345,0,1,1,2.689,0Zm0,0a1.112,1.112,0,0,0-.382-.834,1.092,1.092,0,1,0,0,1.668A1.137,1.137,0,0,0,269.889,215.209Z" transform="translate(-261.501 -211.282)" opacity="0.1"/>
            <path id="Path_30" data-name="Path 30" d="M268.139,227.459a1.345,1.345,0,0,1-2.231,1.015,1.375,1.375,0,0,1-.459-1.015,1.345,1.345,0,1,1,2.689,0Zm0,0a1.112,1.112,0,0,0-.382-.834,1.092,1.092,0,1,0,0,1.668A1.112,1.112,0,0,0,268.139,227.459Z" transform="translate(-260.967 -215.019)" opacity="0.1"/>
            <path id="Path_31" data-name="Path 31" d="M265.99,240.4a1.345,1.345,0,0,1-2.231,1.015,1.352,1.352,0,0,1,0-2.029,1.358,1.358,0,0,1,1.015-.327A1.34,1.34,0,0,1,265.99,240.4Zm0,0a1.112,1.112,0,0,0-.382-.834,1.092,1.092,0,1,0,0,1.668A1.112,1.112,0,0,0,265.99,240.4Z" transform="translate(-260.312 -218.966)" opacity="0.1"/>
            <path id="Path_32" data-name="Path 32" d="M263.839,253.339a1.345,1.345,0,0,1-2.231,1.015,1.375,1.375,0,0,1-.459-1.015,1.345,1.345,0,1,1,2.689,0Zm0,0a1.112,1.112,0,0,0-.382-.834,1.092,1.092,0,1,0,0,1.668A1.135,1.135,0,0,0,263.839,253.339Z" transform="translate(-259.656 -222.913)" opacity="0.1"/>
            <path id="Path_33" data-name="Path 33" d="M271.169,273.969a1.345,1.345,0,0,1-2.231,1.015,1.375,1.375,0,0,1-.459-1.015,1.345,1.345,0,1,1,2.689,0Zm0,0a1.112,1.112,0,0,0-.382-.834,1.092,1.092,0,1,0,0,1.668A1.137,1.137,0,0,0,271.169,273.969Z" transform="translate(-261.892 -229.206)" opacity="0.1"/>
            <path id="Path_34" data-name="Path 34" d="M283.379,276.949a1.345,1.345,0,0,1-2.231,1.015,1.375,1.375,0,0,1-.459-1.015,1.345,1.345,0,1,1,2.689,0Zm0,0a1.112,1.112,0,0,0-.382-.834,1.092,1.092,0,1,0,0,1.668A1.112,1.112,0,0,0,283.379,276.949Z" transform="translate(-265.616 -230.115)" opacity="0.1"/>
            <path id="Path_35" data-name="Path 35" d="M295.589,279.929a1.345,1.345,0,0,1-2.231,1.015,1.375,1.375,0,0,1-.459-1.015,1.345,1.345,0,1,1,2.689,0Zm0,0a1.112,1.112,0,0,0-.382-.834,1.1,1.1,0,1,0,.382.834Z" transform="translate(-269.341 -231.024)" opacity="0.1"/>
            <path id="Path_36" data-name="Path 36" d="M307.81,282.909a1.345,1.345,0,0,1-2.231,1.015,1.375,1.375,0,0,1-.459-1.015,1.345,1.345,0,1,1,2.689,0Zm0,0a1.112,1.112,0,0,0-.382-.834,1.092,1.092,0,1,0,0,1.668A1.137,1.137,0,0,0,307.81,282.909Z" transform="translate(-273.068 -231.933)" opacity="0.1"/>
            <path id="Path_37" data-name="Path 37" d="M320.024,285.971a1.344,1.344,0,0,1-2.3.841,1.375,1.375,0,0,1-.375-1.049,1.349,1.349,0,0,1,1.578-1.23A1.375,1.375,0,0,1,320.024,285.971Zm0,0a1.145,1.145,0,0,0-.313-.862,1.113,1.113,0,0,0-.813-.313,1.091,1.091,0,1,0,.681,1.974A1.114,1.114,0,0,0,320.024,285.971Z" transform="translate(-276.798 -232.834)" opacity="0.1"/>
            <path id="Path_38" data-name="Path 38" d="M261.69,266.269a1.345,1.345,0,0,1-2.231,1.015,1.352,1.352,0,0,1,0-2.029,1.345,1.345,0,0,1,2.231,1.015Zm0,0a1.112,1.112,0,0,0-.382-.834,1.092,1.092,0,1,0,0,1.668A1.112,1.112,0,0,0,261.69,266.269Z" transform="translate(-259 -226.857)" opacity="0.1"/>
          </g>
          <g id="Group_22" data-name="Group 22" transform="translate(6.608 19.652)">
            <g id="Group_17" data-name="Group 17" transform="translate(0 0)">
              <circle id="Ellipse_4" data-name="Ellipse 4" cx="19.619" cy="19.619" r="19.619" transform="translate(0 26.234) rotate(-41.96)" opacity="0.2"/>
              <circle id="Ellipse_5" data-name="Ellipse 5" cx="15.734" cy="15.734" r="15.734" transform="matrix(0.354, -0.935, 0.935, 0.354, 7.417, 36.851)" fill="#263238"/>
              <g id="Group_16" data-name="Group 16" transform="translate(17.031 17.051)">
                <rect id="Rectangle_60" data-name="Rectangle 60" width="3.725" height="3.725" transform="translate(6.05 4.274) rotate(9.201)" fill="#ffc727"/>
                <rect id="Rectangle_61" data-name="Rectangle 61" width="3.725" height="3.725" transform="translate(2.965 0) rotate(9.201)" fill="#ffc727"/>
                <rect id="Rectangle_62" data-name="Rectangle 62" width="3.725" height="3.725" transform="translate(17.677 2.383) rotate(9.201)" fill="#ffc727"/>
                <rect id="Rectangle_63" data-name="Rectangle 63" width="3.725" height="3.725" transform="translate(0.596 14.629) rotate(9.201)" fill="#ffc727"/>
                <rect id="Rectangle_64" data-name="Rectangle 64" width="3.725" height="3.725" transform="translate(15.308 17.012) rotate(9.201)" fill="#ffc727"/>
                <rect id="Rectangle_65" data-name="Rectangle 65" width="3.725" height="3.725" transform="translate(4.87 11.543) rotate(9.201)" fill="#ffc727"/>
                <rect id="Rectangle_66" data-name="Rectangle 66" width="3.725" height="3.725" transform="translate(9.136 8.506) rotate(9.201)" fill="#ffc727"/>
                <rect id="Rectangle_67" data-name="Rectangle 67" width="3.725" height="3.725" transform="translate(13.403 5.462) rotate(9.201)" fill="#ffc727"/>
                <rect id="Rectangle_68" data-name="Rectangle 68" width="3.725" height="3.725" transform="translate(12.233 12.736) rotate(9.201)" fill="#ffc727"/>
              </g>
            </g>
            <g id="Group_21" data-name="Group 21" transform="translate(52.749 8.307)">
              <g id="Group_18" data-name="Group 18" transform="translate(0 0)">
                <circle id="Ellipse_6" data-name="Ellipse 6" cx="19.619" cy="19.619" r="19.619" transform="matrix(0.634, -0.774, 0.774, 0.634, 0, 30.35)" fill="#ffc727"/>
                <circle id="Ellipse_7" data-name="Ellipse 7" cx="19.619" cy="19.619" r="19.619" transform="matrix(0.634, -0.774, 0.774, 0.634, 0, 30.35)" opacity="0.2"/>
                <path id="Path_39" data-name="Path 39" d="M309.739,275.061c-.09.389-.195.758-.306,1.133l-38.244-8.159c.09-.681.215-1.362.375-2.057a19.62,19.62,0,1,1,38.174,9.083Z" transform="translate(-263.039 -242.906)" opacity="0.2"/>
              </g>
              <circle id="Ellipse_8" data-name="Ellipse 8" cx="15.734" cy="15.734" r="15.734" transform="matrix(0.923, -0.386, 0.386, 0.923, 7.023, 19.168)" fill="#263238"/>
              <g id="Group_19" data-name="Group 19" transform="translate(23.656 18.162)">
                <rect id="Rectangle_69" data-name="Rectangle 69" width="3.725" height="18.548" transform="matrix(0.973, 0.231, -0.231, 0.973, 4.288, 0)" fill="#ffc727"/>
              </g>
              <g id="Group_20" data-name="Group 20" transform="translate(7.671 6.364)">
                <path id="Path_40" data-name="Path 40" d="M310.669,273.981,270.5,264.433a20.644,20.644,0,0,1,40.169,9.549Z" transform="translate(-270.5 -248.559)" fill="#ffc727"/>
                <path id="Path_41" data-name="Path 41" d="M310.669,273.981,270.5,264.433a20.644,20.644,0,0,1,40.169,9.549Z" transform="translate(-270.5 -248.559)" opacity="0.2"/>
              </g>
            </g>
            <path id="Path_42" data-name="Path 42" d="M250.07,293.213a7.308,7.308,0,0,1,1.814-4.42,5.267,5.267,0,0,1,2.134-1.432,5.909,5.909,0,0,1,2.571-.285,4.783,4.783,0,0,1,4.031,3.016,8.04,8.04,0,0,1,.41,4.76,12.68,12.68,0,0,0-1.383-4.267,4.084,4.084,0,0,0-3.2-2.127,4.877,4.877,0,0,0-3.808,1.112A10.2,10.2,0,0,0,250.07,293.213Z" transform="translate(-203.848 -245.628)" opacity="0.1"/>
          </g>
          <g id="Group_23" data-name="Group 23" transform="translate(13.67 1.647)">
            <path id="Path_43" data-name="Path 43" d="M193.72,227.115c.16-2.1.4-4.184.6-6.275.222-2.085.452-4.177.709-6.255s.514-4.163.778-6.248.563-4.156.841-6.241l.076-.556.563.035q6.786.427,13.552,1.112,3.388.344,6.755.785c2.245.32,4.5.619,6.727,1.029l-13.566-.841-13.552-.876.639-.521c-.306,2.078-.591,4.156-.917,6.227s-.639,4.149-.98,6.22-.695,4.142-1.056,6.206C194.491,222.986,194.144,225.057,193.72,227.115Z" transform="translate(-193.72 -201.54)" fill="#fff"/>
            <path id="Path_44" data-name="Path 44" d="M198.41,254.907a17.1,17.1,0,0,1,3.141-7.012c.382-.528.82-1.015,1.237-1.515.452-.466.924-.924,1.39-1.383.507-.41,1.022-.82,1.543-1.216.556-.354,1.1-.716,1.661-1.056.591-.285,1.181-.577,1.779-.848l1.863-.646,1.932-.4c.646-.1,1.307-.111,1.953-.167a18.969,18.969,0,0,1,7.554,1.446,26.814,26.814,0,0,0-7.492-.493,17.529,17.529,0,0,0-7,2.175,20.351,20.351,0,0,0-5.685,4.691A23.222,23.222,0,0,0,198.41,254.907Z" transform="translate(-195.151 -213.474)" fill="#fff"/>
            <path id="Path_45" data-name="Path 45" d="M276.29,263.545a17.1,17.1,0,0,1,4.079-6.512c.452-.466.952-.89,1.432-1.327.514-.4,1.042-.785,1.571-1.174.563-.341,1.126-.674,1.7-.994.6-.271,1.188-.556,1.793-.813.625-.2,1.251-.41,1.883-.6l1.932-.382,1.967-.125c.653-.007,1.307.069,1.96.111a18.927,18.927,0,0,1,7.283,2.474,27.043,27.043,0,0,0-7.353-1.529,17.56,17.56,0,0,0-7.235,1.188,20.487,20.487,0,0,0-6.275,3.857A23.2,23.2,0,0,0,276.29,263.545Z" transform="translate(-218.907 -216.816)" fill="#fff"/>
          </g>
        </g>
        <g id="Group_43" data-name="Group 43" transform="translate(7.409 49.69)">
          <g id="Group_27" data-name="Group 27">
            <g id="Group_25" data-name="Group 25" transform="translate(8.546 16.38)">
              <path id="Path_46" data-name="Path 46" d="M176.218,339.419c-5.025,0-16.026-1.133-23.107-10.237-9.055-11.648-5.782-33.991-5.643-34.943l3.933.6c-.035.215-3.155,21.606,4.851,31.9,7.825,10.063,22.023,8.617,22.169,8.6l.445,3.954A23.6,23.6,0,0,1,176.218,339.419Z" transform="translate(-146.779 -294.24)" fill="#ffc727"/>
              <path id="Path_47" data-name="Path 47" d="M176.218,339.419c-5.025,0-16.026-1.133-23.107-10.237-9.055-11.648-5.782-33.991-5.643-34.943l3.933.6c-.035.215-3.155,21.606,4.851,31.9,7.825,10.063,22.023,8.617,22.169,8.6l.445,3.954A23.6,23.6,0,0,1,176.218,339.419Z" transform="translate(-146.779 -294.24)" fill="#fff" opacity="0.4"/>
            </g>
            <path id="Path_48" data-name="Path 48" d="M148.811,290.358a14.034,14.034,0,0,1-2.2-.181c-6.637-1.077-9.57-5.045-10.869-8.187a20.79,20.79,0,0,1-.89-11.321l8.416,1.362a12.928,12.928,0,0,0,.361,6.706c.48,1.154,1.4,2.544,4.35,3.023,1.348.215,2.8.1,4.33-2.2a15.98,15.98,0,0,0,2.134-5.72l8.416,1.362a24.714,24.714,0,0,1-3.44,9.069C156.775,288.253,153.064,290.358,148.811,290.358Z" transform="translate(-134.481 -270.67)" fill="#ffc727"/>
            <g id="Group_26" data-name="Group 26" transform="translate(35.713 44.999)">
              <path id="Path_49" data-name="Path 49" d="M196.454,363.364c-.014-.181-7.13-1.32-7.13-1.32l-3.454-23.219,8.618-3.405Z" transform="translate(-185.87 -335.42)" fill="#ffc727"/>
              <path id="Path_50" data-name="Path 50" d="M196.454,363.364c-.014-.181-7.13-1.32-7.13-1.32l-3.454-23.219,8.618-3.405Z" transform="translate(-185.87 -335.42)" opacity="0.2"/>
            </g>
          </g>
          <g id="Group_28" data-name="Group 28" transform="translate(116.627 45.096)">
            <path id="Path_51" data-name="Path 51" d="M302.3,363.449c.021-.181,7.158-1.161,7.158-1.161l3.968-23.135-8.541-3.593Z" transform="translate(-302.3 -335.56)" fill="#ffc727"/>
            <path id="Path_52" data-name="Path 52" d="M302.3,363.449c.021-.181,7.158-1.161,7.158-1.161l3.968-23.135-8.541-3.593Z" transform="translate(-302.3 -335.56)" opacity="0.2"/>
          </g>
          <path id="Path_53" data-name="Path 53" d="M196.84,327.557s57.536-2.46,76.967.778c0,0-5.706,55.673-6.018,56.75,0,0-57.23-.153-66.174,0C201.614,385.093,196.77,348.073,196.84,327.557Z" transform="translate(-153.503 -287.75)" fill="#ffc727"/>
          <g id="Group_39" data-name="Group 39" transform="translate(60.808 54.62)">
            <path id="Path_54" data-name="Path 54" d="M221.99,349.713s31.405-1.237,42.017.4c0,0-3.113,28.069-3.287,28.618,0,0-31.245-.076-36.124,0C224.6,378.721,222.449,359.5,221.99,349.713Z" transform="translate(-221.983 -349.264)" opacity="0.2"/>
            <path id="Path_55" data-name="Path 55" d="M226.275,378.87c-.716,0-1.293.007-1.689.014,0,0-2.14-19.216-2.606-29.015,0,0,.716-.028,1.96-.069Z" transform="translate(-221.98 -349.428)" opacity="0.2"/>
            <g id="Group_33" data-name="Group 33" transform="translate(3.822 1.999)">
              <g id="Group_32" data-name="Group 32">
                <g id="Group_31" data-name="Group 31">
                  <g id="Group_30" data-name="Group 30">
                    <path id="Path_56" data-name="Path 56" d="M237.961,358.177a3.341,3.341,0,1,0,2.182,4.191A3.342,3.342,0,0,0,237.961,358.177Zm1.793,4.072a2.933,2.933,0,1,1-1.911-3.683A2.929,2.929,0,0,1,239.754,362.25Zm-1.793-4.072a3.341,3.341,0,1,0,2.182,4.191A3.342,3.342,0,0,0,237.961,358.177Zm1.793,4.072a2.933,2.933,0,1,1-1.911-3.683A2.929,2.929,0,0,1,239.754,362.25Zm-1.793-4.072a3.341,3.341,0,1,0,2.182,4.191A3.342,3.342,0,0,0,237.961,358.177Zm1.793,4.072a2.933,2.933,0,1,1-1.911-3.683A2.929,2.929,0,0,1,239.754,362.25Zm-.674-7.6a7.042,7.042,0,1,0,4.6,8.833A7.046,7.046,0,0,0,239.079,354.647Zm1.564,7.881a3.862,3.862,0,1,1-2.523-4.844A3.866,3.866,0,0,1,240.643,362.528Zm-.5-.16a3.341,3.341,0,1,0-4.191,2.182A3.342,3.342,0,0,0,240.143,362.368Zm-.389-.118a2.933,2.933,0,1,1-1.911-3.683A2.929,2.929,0,0,1,239.754,362.25Zm-1.793-4.072a3.341,3.341,0,1,0,2.182,4.191A3.342,3.342,0,0,0,237.961,358.177Zm1.793,4.072a2.933,2.933,0,1,1-1.911-3.683A2.929,2.929,0,0,1,239.754,362.25Zm-1.793-4.072a3.341,3.341,0,1,0,2.182,4.191A3.342,3.342,0,0,0,237.961,358.177Zm1.793,4.072a2.933,2.933,0,1,1-1.911-3.683A2.929,2.929,0,0,1,239.754,362.25Z" transform="translate(-228.224 -352.805)" fill="#ffc727"/>
                    <g id="Group_29" data-name="Group 29">
                      <path id="Path_57" data-name="Path 57" d="M237.666,373.95l-2.585-.82-.431,1.876,2.293.723Z" transform="translate(-229.667 -358.543)" fill="#ffc727"/>
                      <path id="Path_58" data-name="Path 58" d="M231.044,369.775l-1.251-2.4-1.633,1.015,1.119,2.14Z" transform="translate(-227.687 -356.786)" fill="#ffc727"/>
                      <path id="Path_59" data-name="Path 59" d="M229.266,362.316l.813-2.578-1.869-.438-.73,2.3Z" transform="translate(-227.48 -354.324)" fill="#ffc727"/>
                      <path id="Path_60" data-name="Path 60" d="M233.2,355.7l2.4-1.244-1.022-1.633-2.134,1.112Z" transform="translate(-228.996 -352.347)" fill="#ffc727"/>
                      <path id="Path_61" data-name="Path 61" d="M240.71,353.919l2.585.813.431-1.869-2.293-.723Z" transform="translate(-231.516 -352.14)" fill="#ffc727"/>
                      <path id="Path_62" data-name="Path 62" d="M247.39,357.851l1.251,2.4,1.633-1.022-1.112-2.134Z" transform="translate(-233.553 -353.653)" fill="#ffc727"/>
                      <path id="Path_63" data-name="Path 63" d="M249.293,365.37l-.813,2.578,1.869.438.73-2.3Z" transform="translate(-233.886 -356.176)" fill="#ffc727"/>
                      <path id="Path_64" data-name="Path 64" d="M245.118,372.04l-2.4,1.251,1.015,1.633,2.134-1.112Z" transform="translate(-232.129 -358.21)" fill="#ffc727"/>
                    </g>
                  </g>
                </g>
              </g>
            </g>
            <g id="Group_38" data-name="Group 38" transform="translate(17.784 13.271)">
              <g id="Group_37" data-name="Group 37">
                <g id="Group_36" data-name="Group 36">
                  <g id="Group_35" data-name="Group 35">
                    <path id="Path_65" data-name="Path 65" d="M255.219,372.757a2.25,2.25,0,1,0,.66,3.113A2.247,2.247,0,0,0,255.219,372.757Zm.424,2.961a1.974,1.974,0,1,1-.577-2.731A1.969,1.969,0,0,1,255.643,375.718Zm-.424-2.961a2.25,2.25,0,1,0,.66,3.113A2.247,2.247,0,0,0,255.219,372.757Zm.424,2.961a1.974,1.974,0,1,1-.577-2.731A1.969,1.969,0,0,1,255.643,375.718Zm-.424-2.961a2.25,2.25,0,1,0,.66,3.113A2.247,2.247,0,0,0,255.219,372.757Zm.424,2.961a1.974,1.974,0,1,1-.577-2.731A1.969,1.969,0,0,1,255.643,375.718Zm.931-5.045a4.741,4.741,0,1,0,1.383,6.553A4.743,4.743,0,0,0,256.574,370.672Zm-.41,5.386a2.595,2.595,0,1,1-.758-3.586A2.6,2.6,0,0,1,256.164,376.058Zm-.292-.188a2.248,2.248,0,1,0-3.106.66A2.258,2.258,0,0,0,255.872,375.871Zm-.229-.153a1.974,1.974,0,1,1-.577-2.731A1.969,1.969,0,0,1,255.643,375.718Zm-.424-2.961a2.25,2.25,0,1,0,.66,3.113A2.247,2.247,0,0,0,255.219,372.757Zm.424,2.961a1.974,1.974,0,1,1-.577-2.731A1.969,1.969,0,0,1,255.643,375.718Zm-.424-2.961a2.25,2.25,0,1,0,.66,3.113A2.247,2.247,0,0,0,255.219,372.757Zm.424,2.961a1.974,1.974,0,1,1-.577-2.731A1.969,1.969,0,0,1,255.643,375.718Z" transform="translate(-248.082 -368.831)" fill="#dbdbdb"/>
                    <g id="Group_34" data-name="Group 34">
                      <path id="Path_66" data-name="Path 66" d="M252.657,382.484l-1.529-.994-.618,1.133,1.362.883Z" transform="translate(-248.467 -372.365)" fill="#dbdbdb"/>
                      <path id="Path_67" data-name="Path 67" d="M249.189,378.669l-.375-1.779-1.244.361.334,1.591Z" transform="translate(-247.57 -370.962)" fill="#dbdbdb"/>
                      <path id="Path_68" data-name="Path 68" d="M249.282,373.447l.994-1.529-1.133-.619-.883,1.355Z" transform="translate(-247.78 -369.257)" fill="#dbdbdb"/>
                      <path id="Path_69" data-name="Path 69" d="M253.124,369.979l1.779-.382-.361-1.237-1.591.334Z" transform="translate(-249.211 -368.36)" fill="#dbdbdb"/>
                      <path id="Path_70" data-name="Path 70" d="M258.26,370.069l1.529.994.619-1.133-1.355-.89Z" transform="translate(-250.831 -368.567)" fill="#dbdbdb"/>
                      <path id="Path_71" data-name="Path 71" d="M261.96,373.907l.382,1.786,1.237-.368-.334-1.585Z" transform="translate(-251.96 -370.001)" fill="#dbdbdb"/>
                      <path id="Path_72" data-name="Path 72" d="M261.694,379.05l-.994,1.529,1.133.618.89-1.362Z" transform="translate(-251.575 -371.621)" fill="#dbdbdb"/>
                      <path id="Path_73" data-name="Path 73" d="M257.886,382.75l-1.786.375.368,1.244,1.585-.334Z" transform="translate(-250.172 -372.75)" fill="#dbdbdb"/>
                    </g>
                  </g>
                </g>
              </g>
            </g>
          </g>
          <g id="Group_41" data-name="Group 41" transform="translate(99.545 47.98)">
            <path id="Path_74" data-name="Path 74" d="M305.59,382.589l2.217.417,6.324-42.83-2.523-.466Z" transform="translate(-286.221 -339.71)" fill="#ffc727"/>
            <g id="Group_40" data-name="Group 40">
              <path id="Path_75" data-name="Path 75" d="M277.72,375.806l3.287-28.618,22.1-7.478s-6.018,43.345-6.018,42.879Z" transform="translate(-277.72 -339.71)" fill="#ffc727"/>
              <path id="Path_76" data-name="Path 76" d="M277.72,375.806l3.287-28.618,22.1-7.478s-6.018,43.345-6.018,42.879Z" transform="translate(-277.72 -339.71)" fill="#fff" opacity="0.4"/>
            </g>
          </g>
          <path id="Path_77" data-name="Path 77" d="M200.266,345.148c-.361-2.37-.556-4.76-.7-7.151-.07-1.2-.1-2.4-.125-3.593s-.042-2.4-.007-3.593l.007-.313.306-.014c4.392-.236,8.777-.521,13.169-.716,4.392-.215,8.784-.417,13.176-.549-4.378.4-8.763.737-13.149,1.049-4.385.341-8.77.591-13.156.89l.313-.334-.021,3.579.042,3.579q.01,1.793.063,3.586Z" transform="translate(-154.288 -288.53)" fill="#fff"/>
          <path id="Path_78" data-name="Path 78" d="M286.88,348.493q2.054-.98,4.17-1.814c1.4-.57,2.822-1.112,4.253-1.605s2.87-.966,4.337-1.376a39.985,39.985,0,0,1,4.441-1.035l.368-.063-.07.354c-.347,1.856-.709,3.7-1.14,5.546.16-1.883.389-3.753.632-5.622l.306.292c-1.459.348-2.9.758-4.35,1.181s-2.884.883-4.316,1.355Z" transform="translate(-180.969 -292.612)" fill="#fff"/>
          <g id="Group_42" data-name="Group 42" transform="translate(50.83 39.925)">
            <path id="Path_79" data-name="Path 79" d="M214.4,328.12l.375,7.158.32,7.158.549,14.323.431,14.33.174,7.158.118,7.172-.375-7.158-.313-7.158-.556-14.323-.431-14.33-.174-7.165Z" transform="translate(-209.689 -328.12)" opacity="0.1"/>
            <path id="Path_80" data-name="Path 80" d="M210.282,333.856a1.352,1.352,0,0,1-.924,1.557,1.347,1.347,0,1,1-.535-2.627A1.339,1.339,0,0,1,210.282,333.856Zm0,0a1.08,1.08,0,0,0-1.4-.827,1.093,1.093,0,0,0,.424,2.127,1.081,1.081,0,0,0,.764-.41A1.1,1.1,0,0,0,210.282,333.856Z" transform="translate(-207.622 -329.54)" opacity="0.1"/>
            <path id="Path_81" data-name="Path 81" d="M210.992,346.206a1.352,1.352,0,0,1-.924,1.557,1.347,1.347,0,1,1-.535-2.627A1.339,1.339,0,0,1,210.992,346.206Zm0,0a1.08,1.08,0,0,0-1.4-.827,1.093,1.093,0,0,0,.424,2.127,1.082,1.082,0,0,0,.764-.41A1.1,1.1,0,0,0,210.992,346.206Z" transform="translate(-207.838 -333.307)" opacity="0.1"/>
            <path id="Path_82" data-name="Path 82" d="M211.442,359.316a1.352,1.352,0,0,1-.924,1.557,1.338,1.338,0,0,1-1.71-1.022,1.342,1.342,0,0,1,.25-1.084,1.371,1.371,0,0,1,.931-.521A1.331,1.331,0,0,1,211.442,359.316Zm0,0a1.08,1.08,0,0,0-1.4-.827,1.093,1.093,0,0,0,.424,2.127,1.082,1.082,0,0,0,.764-.41A1.1,1.1,0,0,0,211.442,359.316Z" transform="translate(-207.976 -337.306)" opacity="0.1"/>
            <path id="Path_83" data-name="Path 83" d="M211.892,372.426a1.352,1.352,0,0,1-.924,1.557,1.338,1.338,0,0,1-1.71-1.022,1.342,1.342,0,0,1,.25-1.084,1.371,1.371,0,0,1,.931-.521A1.331,1.331,0,0,1,211.892,372.426Zm0,0a1.08,1.08,0,0,0-1.4-.827,1.093,1.093,0,0,0,.424,2.127,1.082,1.082,0,0,0,.764-.41A1.1,1.1,0,0,0,211.892,372.426Z" transform="translate(-208.113 -341.306)" opacity="0.1"/>
            <path id="Path_84" data-name="Path 84" d="M212.342,385.526a1.352,1.352,0,0,1-.924,1.557,1.347,1.347,0,1,1-.535-2.627A1.345,1.345,0,0,1,212.342,385.526Zm0,0a1.08,1.08,0,0,0-1.4-.827,1.093,1.093,0,0,0,.424,2.127,1.082,1.082,0,0,0,.973-1.3Z" transform="translate(-208.25 -345.302)" opacity="0.1"/>
            <path id="Path_85" data-name="Path 85" d="M212.792,398.636a1.352,1.352,0,0,1-.924,1.557,1.347,1.347,0,1,1-.535-2.627A1.345,1.345,0,0,1,212.792,398.636Zm0,0a1.08,1.08,0,0,0-1.4-.827,1.094,1.094,0,1,0,1.4.827Z" transform="translate(-208.387 -349.301)" opacity="0.1"/>
          </g>
        </g>
        <g id="Group_46" data-name="Group 46" transform="translate(0 135.733)">
          <rect id="Rectangle_70" data-name="Rectangle 70" width="34.039" height="3.975" transform="translate(32.88 27.019) rotate(-16.858)" fill="#ffc727"/>
          <rect id="Rectangle_71" data-name="Rectangle 71" width="34.039" height="3.975" transform="translate(32.88 27.019) rotate(-16.858)" fill="#fff" opacity="0.4"/>
          <rect id="Rectangle_72" data-name="Rectangle 72" width="3.975" height="5.907" transform="translate(46.081 21.789) rotate(-17.643)" fill="#ffc727"/>
          <g id="Group_45" data-name="Group 45">
            <path id="Path_86" data-name="Path 86" d="M157.6,430.882l-8.409-36.4L123.82,400.5l12.5,35.478Z" transform="translate(-123.82 -394.48)" fill="#ffc727"/>
            <g id="Group_44" data-name="Group 44" transform="translate(25.373)">
              <path id="Path_87" data-name="Path 87" d="M174.368,429.033l-5.629,1.849-8.409-36.4,8.1,1.932Z" transform="translate(-160.33 -394.48)" fill="#ffc727"/>
              <path id="Path_88" data-name="Path 88" d="M174.368,429.033l-5.629,1.849-8.409-36.4,8.1,1.932Z" transform="translate(-160.33 -394.48)" opacity="0.2"/>
            </g>
          </g>
          <circle id="Ellipse_9" data-name="Ellipse 9" cx="4.316" cy="4.316" r="4.316" transform="translate(61.733 14.733)" fill="#ffc727"/>
        </g>
        <g id="Group_49" data-name="Group 49" transform="translate(105.592 135.719)">
          <rect id="Rectangle_73" data-name="Rectangle 73" width="3.975" height="34.039" transform="translate(3.731 20.862) rotate(-73.022)" fill="#ffc727"/>
          <rect id="Rectangle_74" data-name="Rectangle 74" width="3.975" height="34.039" transform="translate(3.731 20.862) rotate(-73.022)" fill="#fff" opacity="0.4"/>
          <rect id="Rectangle_75" data-name="Rectangle 75" width="5.907" height="3.975" transform="matrix(0.305, -0.952, 0.952, 0.305, 18.698, 26.131)" fill="#ffc727"/>
          <g id="Group_48" data-name="Group 48" transform="translate(30.926)">
            <path id="Path_89" data-name="Path 89" d="M328.36,430.848l8.479-36.388,25.366,6.074-12.572,35.45Z" transform="translate(-322.731 -394.46)" fill="#ffc727"/>
            <g id="Group_47" data-name="Group 47">
              <path id="Path_90" data-name="Path 90" d="M320.26,428.986l5.629,1.863,8.479-36.388-8.1,1.911Z" transform="translate(-320.26 -394.46)" fill="#ffc727"/>
              <path id="Path_91" data-name="Path 91" d="M320.26,428.986l5.629,1.863,8.479-36.388-8.1,1.911Z" transform="translate(-320.26 -394.46)" opacity="0.2"/>
            </g>
          </g>
          <path id="Path_92" data-name="Path 92" d="M275.76,419.849a4.319,4.319,0,1,0,4.33-4.309A4.321,4.321,0,0,0,275.76,419.849Z" transform="translate(-275.76 -400.89)" fill="#ffc727"/>
        </g>
        <g id="Group_51" data-name="Group 51" transform="translate(135.434 98.604)">
          <g id="Group_50" data-name="Group 50" transform="translate(0)">
            <path id="Path_93" data-name="Path 93" d="M321.452,352.226c.1-.1,10.563-9.8,22.871-6.484,12.586,3.4,22.982,22.357,23.08,22.545l3.5-1.89c-.452-.841-11.293-20.654-25.547-24.5-14.5-3.906-26.158,6.97-26.652,7.436Z" transform="translate(-318.7 -341.054)" fill="#ffc727"/>
            <path id="Path_94" data-name="Path 94" d="M321.452,352.226c.1-.1,10.563-9.8,22.871-6.484,12.586,3.4,22.982,22.357,23.08,22.545l3.5-1.89c-.452-.841-11.293-20.654-25.547-24.5-14.5-3.906-26.158,6.97-26.652,7.436Z" transform="translate(-318.7 -341.054)" fill="#fff" opacity="0.4"/>
          </g>
          <path id="Path_95" data-name="Path 95" d="M380.919,397.352l7.54-3.982a15.956,15.956,0,0,1-1.744-5.852c-.167-2.752.924-3.725,2.134-4.357,2.641-1.4,4.218-.841,5.3-.208a13,13,0,0,1,4.323,5.136l7.54-3.982a20.829,20.829,0,0,0-7.526-8.5c-2.926-1.724-7.658-3.127-13.607.014-4.635,2.446-7,6.852-6.658,12.412A24.476,24.476,0,0,0,380.919,397.352Z" transform="translate(-336.845 -351.029)" fill="#ffc727"/>
        </g>
        <g id="Group_52" data-name="Group 52" transform="translate(135.448 84.431)">
          <path id="Path_96" data-name="Path 96" d="M324.95,332.725c1.633-1.126,3.308-2.189,4.983-3.245s3.378-2.071,5.08-3.086,3.419-1.995,5.157-2.947l2.606-1.425c.883-.452,1.751-.924,2.648-1.362-.813.57-1.647,1.105-2.474,1.654l-2.509,1.591c-1.675,1.056-3.378,2.071-5.08,3.086s-3.419,1.995-5.164,2.947S326.729,331.842,324.95,332.725Z" transform="translate(-320.62 -320.66)" fill="#263238"/>
          <path id="Path_97" data-name="Path 97" d="M318.72,361.42c2.342,1.334,4.559,2.835,6.741,4.385a80.408,80.408,0,0,1,6.338,4.948c-2.342-1.334-4.559-2.835-6.741-4.385S320.742,363.2,318.72,361.42Z" transform="translate(-318.72 -333.093)" fill="#263238"/>
          <path id="Path_98" data-name="Path 98" d="M324.25,358.54c1.807.549,3.586,1.168,5.358,1.8s3.53,1.3,5.289,1.974,3.5,1.383,5.233,2.12l2.592,1.112c.855.4,1.724.764,2.571,1.181-.9-.271-1.793-.577-2.689-.862l-2.662-.931c-1.779-.625-3.53-1.3-5.289-1.974s-3.5-1.383-5.233-2.12S325.953,359.36,324.25,358.54Z" transform="translate(-320.407 -332.215)" fill="#263238"/>
          <path id="Path_99" data-name="Path 99" d="M331.63,338.594c1.73-.452,3.475-.827,5.219-1.188s3.5-.688,5.254-1.008c1.758-.3,3.517-.6,5.282-.848l2.648-.368c.89-.1,1.772-.215,2.662-.292-.862.229-1.737.417-2.606.632l-2.613.556c-1.744.368-3.5.688-5.254,1.008-1.758.3-3.517.6-5.282.848S333.409,338.427,331.63,338.594Z" transform="translate(-322.658 -325.001)" fill="#263238"/>
        </g>
      </g>
    </g>
    <g id="Gears" transform="translate(61.057 69.226)">
      <g id="Group_73" data-name="Group 73" transform="translate(0 0)">
        <path id="Path_100" data-name="Path 100" d="M271.62,346.451A18.439,18.439,0,0,1,273,342.372a16.492,16.492,0,0,1,2.293-3.669,8.9,8.9,0,0,1,3.489-2.606,6.153,6.153,0,0,1,4.385.042,5.825,5.825,0,0,1,3.127,3.107,7.031,7.031,0,0,1,.591,2.161,4.831,4.831,0,0,1-.257,2.273,2.138,2.138,0,0,1-.764.987,1.556,1.556,0,0,1-.625.236,1.531,1.531,0,0,1-.695-.063,1.923,1.923,0,0,1-.9-.91,4.914,4.914,0,0,1-.41-1.07,14.186,14.186,0,0,1-.361-4.385,18.071,18.071,0,0,1,2.537-8.312,10.866,10.866,0,0,1,3.016-3.2,9.2,9.2,0,0,1,4.093-1.578,11.472,11.472,0,0,1,2.182-.195,6.349,6.349,0,0,1,1.091.069,7.121,7.121,0,0,1,1.084.146,13.22,13.22,0,0,1,4.066,1.543,17.183,17.183,0,0,1,3.405,2.669,18.151,18.151,0,0,1,2.683,3.371,18.818,18.818,0,0,0-6.255-5.747,13.03,13.03,0,0,0-3.982-1.4,14.543,14.543,0,0,0-2.1-.16,11.082,11.082,0,0,0-2.092.229,8.963,8.963,0,0,0-3.843,1.543,10.3,10.3,0,0,0-2.822,3.051,17.43,17.43,0,0,0-2.377,8.02,13.636,13.636,0,0,0,.306,4.163c.167.639.466,1.355.9,1.557a.915.915,0,0,0,.16.035c.07-.007.139.007.208-.007a.8.8,0,0,0,.368-.139,1.448,1.448,0,0,0,.528-.688,4.228,4.228,0,0,0,.229-1.967,6.522,6.522,0,0,0-.521-1.981,5.41,5.41,0,0,0-2.787-2.856,5.674,5.674,0,0,0-4.031-.125,8.587,8.587,0,0,0-3.384,2.419A18.748,18.748,0,0,0,271.62,346.451Z" transform="translate(-130.682 -155.212)" fill="#263238"/>
        <path id="Path_101" data-name="Path 101" d="M179.22,379.171a9.917,9.917,0,0,1,2.808-3.225,10.459,10.459,0,0,1,3.892-1.862,8.3,8.3,0,0,1,4.344.083,8.669,8.669,0,0,1,3.711,2.307,10.972,10.972,0,0,1,2.321,3.7,10.172,10.172,0,0,1,.716,4.33,3.6,3.6,0,0,1-.806,2.168,1.693,1.693,0,0,1-1.168.528,2.573,2.573,0,0,1-1.2-.271,1.967,1.967,0,0,1-.862-.917,3.2,3.2,0,0,1-.264-1.167,6.44,6.44,0,0,1,.368-2.224,12.845,12.845,0,0,1,2.127-3.829,15.456,15.456,0,0,1,3.148-3.023,11.738,11.738,0,0,1,8.277-2.279,11.016,11.016,0,0,1,7.422,4.177,14.939,14.939,0,0,1,2.14,3.739,17.135,17.135,0,0,1,1.133,4.135,17.319,17.319,0,0,0-3.551-7.645,10.911,10.911,0,0,0-3.232-2.655,10.672,10.672,0,0,0-3.982-1.2,11.275,11.275,0,0,0-7.846,2.245,14.244,14.244,0,0,0-5,6.547,5.8,5.8,0,0,0-.347,1.981,1.685,1.685,0,0,0,.764,1.536,1.924,1.924,0,0,0,.869.2,1.006,1.006,0,0,0,.73-.327,3.045,3.045,0,0,0,.639-1.779,9.523,9.523,0,0,0-.66-4.059,10.814,10.814,0,0,0-2.168-3.53,8.286,8.286,0,0,0-3.447-2.238,7.891,7.891,0,0,0-4.121-.181A10.739,10.739,0,0,0,179.22,379.171Z" transform="translate(-102.496 -169.925)" fill="#263238"/>
        <path id="Path_102" data-name="Path 102" d="M119.263,128.579a18.766,18.766,0,0,0-2.015-8.249,8.6,8.6,0,0,0-2.71-3.162,5.666,5.666,0,0,0-3.947-.841,5.444,5.444,0,0,0-3.391,2.113,6.442,6.442,0,0,0-.98,1.793,4.2,4.2,0,0,0-.25,1.967,1.48,1.48,0,0,0,.347.8.882.882,0,0,0,.327.222.9.9,0,0,0,.195.056,1.327,1.327,0,0,0,.167,0c.473-.09.938-.716,1.251-1.293a13.408,13.408,0,0,0,1.293-3.975,17.422,17.422,0,0,0-.4-8.353,10.213,10.213,0,0,0-2.015-3.635,9.072,9.072,0,0,0-3.364-2.418,11,11,0,0,0-1.974-.723,6.508,6.508,0,0,0-1.035-.208,6.7,6.7,0,0,0-1.042-.139,12.965,12.965,0,0,0-4.2.417,18.793,18.793,0,0,0-7.443,4.086,17.91,17.91,0,0,1,3.405-2.634,16.968,16.968,0,0,1,3.947-1.779,13.3,13.3,0,0,1,4.316-.521,6.468,6.468,0,0,1,1.091.118,7,7,0,0,1,1.077.195,11.449,11.449,0,0,1,2.078.709,9.208,9.208,0,0,1,3.6,2.509,10.794,10.794,0,0,1,2.161,3.829,18.014,18.014,0,0,1,.48,8.68,14.122,14.122,0,0,1-1.4,4.17,5.607,5.607,0,0,1-.653.945,1.957,1.957,0,0,1-1.091.667,1.372,1.372,0,0,1-.688-.1,1.515,1.515,0,0,1-.556-.375,2.078,2.078,0,0,1-.514-1.14,4.87,4.87,0,0,1,.292-2.266,7.023,7.023,0,0,1,1.084-1.96,5.846,5.846,0,0,1,3.781-2.266,6.125,6.125,0,0,1,4.267,1.008,8.871,8.871,0,0,1,2.766,3.364,16.616,16.616,0,0,1,1.355,4.114A17.029,17.029,0,0,1,119.263,128.579Z" transform="translate(-74.695 -87.159)" fill="#263238"/>
        <path id="Path_103" data-name="Path 103" d="M340.247,192.085a18.74,18.74,0,0,0-8.492.035,8.643,8.643,0,0,0-3.7,1.9,5.656,5.656,0,0,0-1.737,3.642,5.414,5.414,0,0,0,1.265,3.788,6.312,6.312,0,0,0,1.515,1.369,4.287,4.287,0,0,0,1.849.7,1.491,1.491,0,0,0,.855-.153.963.963,0,0,0,.292-.264,1.11,1.11,0,0,0,.1-.181c.028-.063.021-.111.042-.16.021-.48-.48-1.077-.966-1.522a13.383,13.383,0,0,0-3.558-2.182,17.4,17.4,0,0,0-8.214-1.564,10.287,10.287,0,0,0-4,1.112,8.9,8.9,0,0,0-3.134,2.71,10.969,10.969,0,0,0-1.168,1.751,6.964,6.964,0,0,0-.445.952,6.272,6.272,0,0,0-.375.987,13.07,13.07,0,0,0-.577,4.184,18.732,18.732,0,0,0,2.238,8.194,18.3,18.3,0,0,1-1.765-3.927,17,17,0,0,1-.813-4.253,13.208,13.208,0,0,1,.5-4.323,6.711,6.711,0,0,1,.368-1.029,7.153,7.153,0,0,1,.438-1,11.451,11.451,0,0,1,1.174-1.856,9.131,9.131,0,0,1,3.28-2.912,10.9,10.9,0,0,1,4.232-1.209,18.052,18.052,0,0,1,8.548,1.557,14.072,14.072,0,0,1,3.732,2.335,5.322,5.322,0,0,1,.764.855,1.962,1.962,0,0,1,.4,1.216,1.506,1.506,0,0,1-.257.646,1.486,1.486,0,0,1-.5.452,2.1,2.1,0,0,1-1.223.229,4.834,4.834,0,0,1-2.134-.813,7.149,7.149,0,0,1-1.654-1.515,5.837,5.837,0,0,1-1.32-4.2,6.171,6.171,0,0,1,1.974-3.92,8.835,8.835,0,0,1,3.92-1.9,16.406,16.406,0,0,1,4.316-.354A17.978,17.978,0,0,1,340.247,192.085Z" transform="translate(-142.218 -114.417)" fill="#263238"/>
        <path id="Path_104" data-name="Path 104" d="M291.672,114.271a11.839,11.839,0,0,1-.271-5.108,12.43,12.43,0,0,1,1.786-4.837,9.986,9.986,0,0,1,3.788-3.544,10.32,10.32,0,0,1,5.087-1.112,13.139,13.139,0,0,1,5.066,1.223,12.221,12.221,0,0,1,4.218,3.093,4.257,4.257,0,0,1,1.112,2.495,1.97,1.97,0,0,1-.542,1.39,2.9,2.9,0,0,1-1.223.751,2.3,2.3,0,0,1-1.466-.063,3.7,3.7,0,0,1-1.181-.771,7.531,7.531,0,0,1-1.529-2.2,15.445,15.445,0,0,1-1.376-5.038,18.406,18.406,0,0,1,.16-5.205,14.017,14.017,0,0,1,5.157-8.847,13.16,13.16,0,0,1,9.82-2.648,18.309,18.309,0,0,1,4.962,1.39,20.772,20.772,0,0,1,4.441,2.571,20.7,20.7,0,0,0-9.444-3.614,13.054,13.054,0,0,0-5,.417,12.776,12.776,0,0,0-4.434,2.314,13.028,13.028,0,0,0-3.232,3.794,14.757,14.757,0,0,0-1.64,4.726,17.073,17.073,0,0,0,1.2,9.834,6.919,6.919,0,0,0,1.376,2.008,2.074,2.074,0,0,0,2,.688,2.341,2.341,0,0,0,.938-.57,1.289,1.289,0,0,0,.368-.938,3.649,3.649,0,0,0-.959-2.1,11.4,11.4,0,0,0-3.982-2.94,12.99,12.99,0,0,0-4.837-1.209,9.859,9.859,0,0,0-4.844.987,9.462,9.462,0,0,0-3.69,3.315A12.783,12.783,0,0,0,291.672,114.271Z" transform="translate(-136.668 -81.566)" fill="#263238"/>
        <g id="Group_58" data-name="Group 58" transform="translate(65.785 204.645)">
          <g id="Group_57" data-name="Group 57">
            <g id="Group_56" data-name="Group 56">
              <g id="Group_55" data-name="Group 55">
                <path id="Path_105" data-name="Path 105" d="M172.747,380.423a2.954,2.954,0,1,0,1.932,3.7A2.949,2.949,0,0,0,172.747,380.423Zm1.591,3.6a2.594,2.594,0,1,1-1.7-3.252A2.593,2.593,0,0,1,174.339,384.023Zm-1.591-3.6a2.954,2.954,0,1,0,1.932,3.7A2.949,2.949,0,0,0,172.747,380.423Zm1.591,3.6a2.594,2.594,0,1,1-1.7-3.252A2.593,2.593,0,0,1,174.339,384.023Zm-1.591-3.6a2.954,2.954,0,1,0,1.932,3.7A2.949,2.949,0,0,0,172.747,380.423Zm1.591,3.6a2.594,2.594,0,1,1-1.7-3.252A2.593,2.593,0,0,1,174.339,384.023Zm-.6-6.72a6.226,6.226,0,1,0,4.072,7.8A6.228,6.228,0,0,0,173.734,377.3Zm1.383,6.964a3.413,3.413,0,1,1-2.231-4.281A3.41,3.41,0,0,1,175.117,384.266Zm-.438-.132a2.951,2.951,0,1,0-3.7,1.932A2.951,2.951,0,0,0,174.679,384.134Zm-.341-.111a2.594,2.594,0,1,1-1.7-3.252A2.593,2.593,0,0,1,174.339,384.023Zm-1.591-3.6a2.954,2.954,0,1,0,1.932,3.7A2.949,2.949,0,0,0,172.747,380.423Zm1.591,3.6a2.594,2.594,0,1,1-1.7-3.252A2.593,2.593,0,0,1,174.339,384.023Zm-1.591-3.6a2.954,2.954,0,1,0,1.932,3.7A2.949,2.949,0,0,0,172.747,380.423Zm1.591,3.6a2.594,2.594,0,1,1-1.7-3.252A2.593,2.593,0,0,1,174.339,384.023Z" transform="translate(-164.136 -375.67)" fill="#455a64"/>
                <g id="Group_54" data-name="Group 54">
                  <path id="Path_106" data-name="Path 106" d="M172.489,394.373l-2.286-.723-.382,1.661,2.029.639Z" transform="translate(-165.414 -380.745)" fill="#455a64"/>
                  <path id="Path_107" data-name="Path 107" d="M166.631,390.677l-1.1-2.127-1.446.9.987,1.89Z" transform="translate(-163.663 -379.189)" fill="#455a64"/>
                  <path id="Path_108" data-name="Path 108" d="M165.058,384.089l.723-2.286-1.661-.382-.639,2.029Z" transform="translate(-163.48 -377.014)" fill="#455a64"/>
                  <path id="Path_109" data-name="Path 109" d="M168.537,378.231l2.127-1.105-.9-1.445-1.89.987Z" transform="translate(-164.819 -375.263)" fill="#455a64"/>
                  <path id="Path_110" data-name="Path 110" d="M175.18,376.658l2.286.716.382-1.654-2.029-.639Z" transform="translate(-167.049 -375.08)" fill="#455a64"/>
                  <path id="Path_111" data-name="Path 111" d="M181.09,380.137l1.1,2.12,1.446-.9-.987-1.89Z" transform="translate(-168.852 -376.419)" fill="#455a64"/>
                  <path id="Path_112" data-name="Path 112" d="M182.773,386.78l-.723,2.286,1.661.382.639-2.029Z" transform="translate(-169.145 -378.649)" fill="#455a64"/>
                  <path id="Path_113" data-name="Path 113" d="M179.077,392.69,176.95,393.8l.9,1.445,1.89-.987Z" transform="translate(-167.589 -380.452)" fill="#455a64"/>
                </g>
              </g>
            </g>
          </g>
        </g>
        <g id="Group_60" data-name="Group 60" transform="translate(170.078 172.142)">
          <g id="Group_59" data-name="Group 59" transform="translate(0)">
            <path id="Path_114" data-name="Path 114" d="M334.136,346.682a9.52,9.52,0,1,0-13.315,1.974A9.514,9.514,0,0,0,334.136,346.682Zm-4.072-3.023a4.444,4.444,0,1,1-.917-6.213A4.449,4.449,0,0,1,330.063,343.659Z" transform="translate(-314.593 -329.28)" fill="#263238"/>
            <path id="Path_115" data-name="Path 115" d="M323.063,356.342l-2.94-2.182-1.383,2.2,2.62,1.939Z" transform="translate(-315.133 -336.195)" fill="#263238"/>
            <path id="Path_116" data-name="Path 116" d="M316.622,348.311l-.535-3.621-2.537.577.48,3.225Z" transform="translate(-313.55 -333.307)" fill="#263238"/>
            <path id="Path_117" data-name="Path 117" d="M317.4,337.823l2.182-2.94-2.2-1.383-1.939,2.62Z" transform="translate(-314.127 -329.893)" fill="#263238"/>
            <path id="Path_118" data-name="Path 118" d="M325.581,331.382l3.621-.535-.584-2.537-3.218.48Z" transform="translate(-317.165 -328.31)" fill="#263238"/>
            <path id="Path_119" data-name="Path 119" d="M335.84,332.157l2.94,2.175,1.376-2.2-2.613-1.946Z" transform="translate(-320.349 -328.883)" fill="#263238"/>
            <path id="Path_120" data-name="Path 120" d="M342.83,340.341l.535,3.621,2.537-.584-.48-3.218Z" transform="translate(-322.482 -331.925)" fill="#263238"/>
            <path id="Path_121" data-name="Path 121" d="M341.582,350.59l-2.182,2.94,2.2,1.383,1.939-2.613Z" transform="translate(-321.435 -335.106)" fill="#263238"/>
            <path id="Path_122" data-name="Path 122" d="M333.551,357.59l-3.621.535.577,2.53,3.225-.473Z" transform="translate(-318.547 -337.242)" fill="#263238"/>
          </g>
          <path id="Path_123" data-name="Path 123" d="M325.77,344.3l2.022,2.551,3.218-.48,1.2-3.023-2.022-2.551-3.218.473ZM329.6,343a1.033,1.033,0,1,1-1.445.215A1.033,1.033,0,0,1,329.6,343Z" transform="translate(-317.278 -332.12)" fill="#263238"/>
        </g>
        <g id="Group_65" data-name="Group 65" transform="translate(189.224)">
          <g id="Group_64" data-name="Group 64" transform="translate(0)">
            <g id="Group_63" data-name="Group 63">
              <g id="Group_62" data-name="Group 62">
                <path id="Path_124" data-name="Path 124" d="M349.206,85.29a2.587,2.587,0,1,0,1.682,3.245A2.587,2.587,0,0,0,349.206,85.29Zm1.39,3.148a2.269,2.269,0,1,1-1.48-2.842A2.276,2.276,0,0,1,350.6,88.438Zm-1.39-3.148a2.587,2.587,0,1,0,1.682,3.245A2.587,2.587,0,0,0,349.206,85.29Zm1.39,3.148a2.269,2.269,0,1,1-1.48-2.842A2.276,2.276,0,0,1,350.6,88.438Zm-1.39-3.148a2.587,2.587,0,1,0,1.682,3.245A2.587,2.587,0,0,0,349.206,85.29Zm1.39,3.148a2.269,2.269,0,1,1-1.48-2.842A2.276,2.276,0,0,1,350.6,88.438Zm-.528-5.879a5.451,5.451,0,1,0,3.558,6.838A5.453,5.453,0,0,0,350.067,82.559Zm1.209,6.095a2.987,2.987,0,1,1-1.953-3.746A2.991,2.991,0,0,1,351.277,88.654Zm-.382-.118a2.587,2.587,0,1,0-3.245,1.689A2.587,2.587,0,0,0,350.894,88.536Zm-.3-.1a2.269,2.269,0,1,1-1.48-2.842A2.276,2.276,0,0,1,350.6,88.438Zm-1.39-3.148a2.587,2.587,0,1,0,1.682,3.245A2.587,2.587,0,0,0,349.206,85.29Zm1.39,3.148a2.269,2.269,0,1,1-1.48-2.842A2.276,2.276,0,0,1,350.6,88.438Zm-1.39-3.148a2.587,2.587,0,1,0,1.682,3.245A2.587,2.587,0,0,0,349.206,85.29Zm1.39,3.148a2.269,2.269,0,1,1-1.48-2.842A2.276,2.276,0,0,1,350.6,88.438Z" transform="translate(-341.672 -81.127)" fill="#263238"/>
                <g id="Group_61" data-name="Group 61">
                  <path id="Path_125" data-name="Path 125" d="M348.975,97.5l-1.995-.625-.341,1.446,1.779.563Z" transform="translate(-342.79 -85.57)" fill="#263238"/>
                  <path id="Path_126" data-name="Path 126" d="M343.854,94.262l-.966-1.862-1.258.792.855,1.654Z" transform="translate(-341.262 -84.206)" fill="#263238"/>
                  <path id="Path_127" data-name="Path 127" d="M342.476,88.5l.632-2-1.452-.334-.556,1.779Z" transform="translate(-341.1 -82.303)" fill="#263238"/>
                  <path id="Path_128" data-name="Path 128" d="M345.524,83.371l1.856-.966-.785-1.265L344.94,82Z" transform="translate(-342.271 -80.772)" fill="#263238"/>
                  <path id="Path_129" data-name="Path 129" d="M351.34,81.993l1.995.632.341-1.452L351.9,80.61Z" transform="translate(-344.224 -80.61)" fill="#263238"/>
                  <path id="Path_130" data-name="Path 130" d="M356.51,85.037l.966,1.862,1.265-.792-.862-1.647Z" transform="translate(-345.801 -81.784)" fill="#263238"/>
                  <path id="Path_131" data-name="Path 131" d="M357.982,90.85l-.632,2,1.452.334.556-1.779Z" transform="translate(-346.057 -83.734)" fill="#263238"/>
                  <path id="Path_132" data-name="Path 132" d="M354.746,96.02l-1.856.966.785,1.265,1.654-.862Z" transform="translate(-344.696 -85.311)" fill="#263238"/>
                </g>
              </g>
            </g>
          </g>
        </g>
        <g id="Group_70" data-name="Group 70" transform="translate(162.662 99.289)">
          <g id="Group_69" data-name="Group 69" transform="translate(0)">
            <g id="Group_68" data-name="Group 68">
              <g id="Group_67" data-name="Group 67">
                <path id="Path_133" data-name="Path 133" d="M311,228.157a2.587,2.587,0,1,0,1.682,3.245A2.587,2.587,0,0,0,311,228.157Zm1.383,3.148a2.269,2.269,0,1,1-1.48-2.842A2.276,2.276,0,0,1,312.379,231.305ZM311,228.157a2.587,2.587,0,1,0,1.682,3.245A2.587,2.587,0,0,0,311,228.157Zm1.383,3.148a2.269,2.269,0,1,1-1.48-2.842A2.276,2.276,0,0,1,312.379,231.305ZM311,228.157a2.587,2.587,0,1,0,1.682,3.245A2.587,2.587,0,0,0,311,228.157Zm1.383,3.148a2.269,2.269,0,1,1-1.48-2.842A2.276,2.276,0,0,1,312.379,231.305Zm-.521-5.886a5.451,5.451,0,1,0,3.558,6.838A5.453,5.453,0,0,0,311.857,225.419Zm1.209,6.1a2.987,2.987,0,1,1-1.953-3.746A2.991,2.991,0,0,1,313.067,231.521Zm-.382-.125a2.587,2.587,0,1,0-3.245,1.689A2.587,2.587,0,0,0,312.684,231.4Zm-.306-.09a2.269,2.269,0,1,1-1.48-2.842A2.276,2.276,0,0,1,312.379,231.305ZM311,228.157a2.587,2.587,0,1,0,1.682,3.245A2.587,2.587,0,0,0,311,228.157Zm1.383,3.148a2.269,2.269,0,1,1-1.48-2.842A2.276,2.276,0,0,1,312.379,231.305ZM311,228.157a2.587,2.587,0,1,0,1.682,3.245A2.587,2.587,0,0,0,311,228.157Zm1.383,3.148a2.269,2.269,0,1,1-1.48-2.842A2.276,2.276,0,0,1,312.379,231.305Z" transform="translate(-303.455 -223.994)" fill="#263238"/>
                <g id="Group_66" data-name="Group 66">
                  <path id="Path_134" data-name="Path 134" d="M310.765,240.362l-2-.632-.334,1.452,1.779.556Z" transform="translate(-304.573 -228.437)" fill="#263238"/>
                  <path id="Path_135" data-name="Path 135" d="M305.641,237.126l-.966-1.856-1.265.785.862,1.654Z" transform="translate(-303.042 -227.076)" fill="#263238"/>
                  <path id="Path_136" data-name="Path 136" d="M304.263,231.355l.625-1.995-1.446-.341-.563,1.779Z" transform="translate(-302.88 -225.17)" fill="#263238"/>
                  <path id="Path_137" data-name="Path 137" d="M307.3,226.234l1.862-.966-.792-1.258-1.654.855Z" transform="translate(-304.051 -223.642)" fill="#263238"/>
                  <path id="Path_138" data-name="Path 138" d="M313.12,224.856l2,.632.334-1.452-1.779-.556Z" transform="translate(-306.004 -223.48)" fill="#263238"/>
                  <path id="Path_139" data-name="Path 139" d="M318.29,227.9l.966,1.856,1.265-.785-.862-1.654Z" transform="translate(-307.581 -224.651)" fill="#263238"/>
                  <path id="Path_140" data-name="Path 140" d="M319.762,233.72l-.632,1.995,1.452.341.563-1.779Z" transform="translate(-307.837 -226.604)" fill="#263238"/>
                  <path id="Path_141" data-name="Path 141" d="M316.533,238.89l-1.862.966.792,1.265,1.654-.862Z" transform="translate(-306.476 -228.181)" fill="#263238"/>
                </g>
              </g>
            </g>
          </g>
        </g>
        <g id="Group_72" data-name="Group 72" transform="translate(0 13.308)">
          <g id="Group_71" data-name="Group 71">
            <path id="Path_142" data-name="Path 142" d="M87.926,112.54a8.2,8.2,0,1,0-9.9,6.025A8.2,8.2,0,0,0,87.926,112.54ZM83.679,111.5a3.827,3.827,0,1,1-2.808-4.628A3.825,3.825,0,0,1,83.679,111.5Z" transform="translate(-69.718 -100.566)" fill="#263238"/>
            <path id="Path_143" data-name="Path 143" d="M81.586,125.394l-3.065-.744-.361,2.21,2.724.66Z" transform="translate(-71.669 -107.352)" fill="#263238"/>
            <path id="Path_144" data-name="Path 144" d="M73.544,121.01l-1.633-2.69-1.821,1.307,1.459,2.4Z" transform="translate(-69.207 -105.422)" fill="#263238"/>
            <path id="Path_145" data-name="Path 145" d="M70.947,112.519l.751-3.058-2.21-.361-.667,2.724Z" transform="translate(-68.82 -102.609)" fill="#263238"/>
            <path id="Path_146" data-name="Path 146" d="M74.968,104.484l2.7-1.64-1.313-1.814-2.391,1.452Z" transform="translate(-70.388 -100.147)" fill="#263238"/>
            <path id="Path_147" data-name="Path 147" d="M83.58,101.887l3.065.744L87,100.42l-2.724-.66Z" transform="translate(-73.322 -99.76)" fill="#263238"/>
            <path id="Path_148" data-name="Path 148" d="M91.61,105.9l1.633,2.689,1.821-1.307-1.459-2.4Z" transform="translate(-75.772 -101.325)" fill="#263238"/>
            <path id="Path_149" data-name="Path 149" d="M94.461,114.52l-.751,3.058,2.21.361.667-2.724Z" transform="translate(-76.412 -104.262)" fill="#263238"/>
            <path id="Path_150" data-name="Path 150" d="M90.076,122.54l-2.7,1.64,1.313,1.814,2.391-1.452Z" transform="translate(-74.482 -106.709)" fill="#263238"/>
          </g>
          <path id="Path_151" data-name="Path 151" d="M79.866,114.5l2.46,1.348,2.4-1.459-.063-2.8-2.453-1.348-2.4,1.452Zm2.606-2.321a.887.887,0,1,1-1.07.653A.885.885,0,0,1,82.472,112.179Z" transform="translate(-72.172 -102.957)" fill="#263238"/>
        </g>
      </g>
    </g>
  </g>
</svg>
